<svg xmlns="http://www.w3.org/2000/svg" xmlns:xlink="http://www.w3.org/1999/xlink" xmlns:inkscape="http://www.inkscape.org/namespaces/inkscape" version="1.1" width="595.276" height="277.89" viewBox="0 0 595.276 277.89">
<defs>
<clipPath id="clip_1">
<path transform="matrix(1,0,0,-1,0,277.89)" d="M0 277.89H595.276V0H0Z"/>
</clipPath>
</defs>
<g inkscape:groupmode="layer" inkscape:label="Layer 1">
<g clip-path="url(#clip_1)">
<path transform="matrix(1,0,0,-1,373.2243,84.46591)" d="M0 0C-2.636 2.025-5.015 4.308-7.105 6.848-9.13 4.34-11.509 2.058-14.241 0ZM.257-9.549H-14.467V-15.077999H.257ZM3.505-19.9H.257V-18.26H-14.466V-19.9H-17.714V-6.398H3.505ZM-5.883 9.901C-1.864 5.401 2.765 1.833 8.037-.74L6.205-3.986C4.501-3.086 2.894-2.09 1.415-1.029V-3.247H-15.624V-.996C-17.168-2.058-18.807-3.086-20.543-4.051L-22.343-.771C-16.718 2.09-12.055 5.658-8.326 9.901Z" fill="#ffffff"/>
<path transform="matrix(1,0,0,-1,409.843,79.48332)" d="M0 0-2.379-2.411C-3.633-.771-5.433 .965-7.812 2.765L-5.53 4.951C-3.344 3.311-1.479 1.672 0 0M-8.873-16.395C-6.976-14.853-5.594-13.18-4.726-11.445H-13.695C-12.634-13.213-11.026-14.853-8.873-16.395M-21.958 3.89-18.614 3.344-20.221-2.475H-15.785C-15.206-.129-14.724 2.347-14.37 4.919L-10.93 4.501C-11.316 2.026-11.766-.289-12.313-2.475H2.315V-5.658H-13.149C-13.47-6.623-13.76-7.523-14.049-8.423H-1.318V-11.251C-2.09-13.759-3.633-16.074-5.915-18.196-3.504-19.514-.643-20.704 2.669-21.797L.932-24.979C-2.894-23.565-6.108-22.054-8.713-20.414-11.22-22.15-14.274-23.725-17.875-25.14L-19.643-21.989C-16.524-20.864-13.856-19.643-11.67-18.324-13.631-16.717-15.11-15.045-16.139-13.278-18.421-17.906-21.283-21.635-24.723-24.433L-26.49-21.314C-22.15-17.456-18.903-12.249-16.718-5.658H-24.529Z" fill="#ffffff"/>
<path transform="matrix(1,0,0,-1,418.0731,80.02962)" d="M0 0V3.215H24.788V0H14.081V-19.225H26.748V-22.472H-2.025V-19.225H10.674V0Z" fill="#ffffff"/>
<path transform="matrix(1,0,0,-1,476.3282,81.76581)" d="M0 0C-1.221-5.498-2.765-10.319-4.63-14.434L-7.651-13.374C-5.851-9.644-4.308-4.886-2.958 .836ZM-20.383-13.791-23.436-14.531C-24.529-9.515-25.88-4.694-27.551-.031L-24.69 .932C-23.083-3.343-21.636-8.261-20.383-13.791M-15.56 6.912V-18.26H-12.024V6.912H-8.648V-18.26H.611V-21.539H-28.13V-18.26H-18.935V6.912Z" fill="#ffffff"/>
<path transform="matrix(1,0,0,-1,0,277.89)" d="M501.63 194.003H487.839V196.961H501.63ZM503.43 191.495V188.538H498.64V182.815C498.64 182.268 498.897 181.979 499.443 181.979H500.151C500.505 181.979 500.793 182.075 501.051 182.236 501.308 182.365 501.501 183.329 501.63 185.098L504.362 184.165C504.073 181.722 503.72 180.275 503.27 179.858 502.818 179.471 501.983 179.279 500.761 179.246H498.415C497.515 179.246 496.807 179.535 496.357 180.05 495.843 180.629 495.586 181.304 495.586 182.14V188.538H493.367C493.046 186.062 492.435 184.1 491.535 182.686 490.442 181.014 488.738 179.664 486.423 178.7L484.88 181.368C486.745 182.075 488.095 183.104 488.995 184.454 489.638 185.483 490.121 186.865 490.377 188.538H486.006V191.495ZM504.973 199.082H484.462V177.543H504.973ZM508.316 173.46H504.973V174.585H484.462V173.46H481.118V202.104H508.316Z" fill="#ffffff"/>
<path transform="matrix(1,0,0,-1,0,277.89)" d="M355.654 129.001H350.927V159.932H355.654Z" fill="#ffffff"/>
<path transform="matrix(1,0,0,-1,374.8757,148.88881)" d="M0 0H-5.125L-9.943 20.811-9.898 15.376V0H-14.142V30.931H-8.618L-4.199 11.842-4.244 17.012V30.931H0Z" fill="#ffffff"/>
<path transform="matrix(1,0,0,-1,384.6406,122.11142)" d="M0 0V-22.624H1.724C3.518-22.624 4.419-21.711 4.419-19.885V-2.739C4.419-.914 3.518 0 1.724 0ZM-4.73-26.777V4.154H2.385C6.891 4.154 9.146 1.9 9.146-2.608V-20.017C9.146-24.524 6.891-26.777 2.385-26.777Z" fill="#ffffff"/>
<path transform="matrix(1,0,0,-1,412.4775,117.95792)" d="M0 0V-25.452C0-29.281-1.916-31.196-5.744-31.196H-8.041C-11.873-31.196-13.786-29.281-13.786-25.452V0H-9.059V-25.23C-9.059-26.44-8.454-27.043-7.247-27.043H-6.496C-5.318-27.043-4.727-26.44-4.727-25.23V0Z" fill="#ffffff"/>
<path transform="matrix(1,0,0,-1,428.1167,133.02642)" d="M0 0C1.031-.736 1.746-1.495 2.145-2.275 2.543-3.056 2.741-4.08 2.741-5.346V-10.384C2.741-14.212 .825-16.128-3.004-16.128H-5.08C-8.881-16.128-10.779-14.228-10.779-10.428V-3.888H-6.185V-10.251C-6.185-11.429-5.583-12.018-4.374-12.018H-3.755C-2.549-12.018-1.944-11.429-1.944-10.251V-6.008C-1.944-4.979-2.385-4.138-3.269-3.49L-8.041 0C-9.073 .736-9.788 1.503-10.183 2.299-10.582 3.094-10.779 4.11-10.779 5.347V9.59C-10.779 13.418-8.866 15.334-5.035 15.334H-3.049C.752 15.334 2.653 13.434 2.653 9.634V4.022H-1.986V9.457C-1.986 10.634-2.577 11.224-3.755 11.224H-4.329C-5.507 11.224-6.097 10.634-6.097 9.457V6.01C-6.097 4.949-5.654 4.11-4.772 3.491Z" fill="#ffffff"/>
<path transform="matrix(1,0,0,-1,443.2756,148.88881)" d="M0 0H-4.727V26.645H-8.971V30.931H4.241V26.645H0Z" fill="#ffffff"/>
<path transform="matrix(1,0,0,-1,460.3727,123.92401)" d="M0 0C0 1.178-.588 1.769-1.766 1.769H-4.063V-8.438H-1.944C-.647-8.438 0-7.805 0-6.54ZM2.034-10.384C3.006-10.648 3.704-11.097 4.134-11.732 4.56-12.364 4.772-13.27 4.772-14.448V-24.965H.045V-14.537C.045-13.211-.616-12.548-1.944-12.548H-4.063V-24.965H-8.793V5.966H-1.014C2.814 5.966 4.73 4.05 4.73 .222V-5.611C4.73-8.057 3.831-9.648 2.034-10.384" fill="#ffffff"/>
<path transform="matrix(1,0,0,-1,0,277.89)" d="M474.865 129.001H470.138V159.932H474.865Z" fill="#ffffff"/>
<path transform="matrix(1,0,0,-1,486.4437,124.18822)" d="M0 0-1.899-15.642H1.944ZM3.314 6.274 7.779-24.701H3.094L2.475-19.841H-2.43L-3.004-24.701H-7.377L-2.958 6.274Z" fill="#ffffff"/>
<path transform="matrix(1,0,0,-1,498.373,117.95792)" d="M0 0H4.73V-26.645H9.943V-30.931H0Z" fill="#ffffff"/>
<path transform="matrix(1,0,0,-1,359.3213,171.23291)" d="M0 0C0 1.208-.588 1.813-1.766 1.813H-3.71V-9.588H-1.766C-.588-9.588 0-8.985 0-7.776ZM-3.71-13.742V-24.965H-8.44V5.966H-1.014C2.814 5.966 4.73 4.05 4.73 .222V-7.998C4.73-11.826 2.814-13.742-1.014-13.742Z" fill="#ffffff"/>
<path transform="matrix(1,0,0,-1,373.9913,171.49712)" d="M0 0-1.899-15.642H1.944ZM3.314 6.274 7.779-24.701H3.094L2.475-19.841H-2.43L-3.004-24.701H-7.377L-2.958 6.274Z" fill="#ffffff"/>
<path transform="matrix(1,0,0,-1,394.7136,171.23291)" d="M0 0C0 1.178-.588 1.769-1.766 1.769H-4.063V-8.438H-1.944C-.647-8.438 0-7.805 0-6.54ZM2.034-10.384C3.006-10.648 3.704-11.097 4.134-11.732 4.56-12.364 4.772-13.27 4.772-14.448V-24.965H.045V-14.537C.045-13.211-.616-12.548-1.944-12.548H-4.063V-24.965H-8.793V5.966H-1.014C2.814 5.966 4.73 4.05 4.73 .222V-5.611C4.73-8.057 3.831-9.648 2.034-10.384" fill="#ffffff"/>
<path transform="matrix(1,0,0,-1,418.8406,196.19773)" d="M0 0H-5.083L-9.677 15.156V0H-14.407V30.931H-9.677V15.995L-4.772 30.931H.175L-5.125 15.731Z" fill="#ffffff"/>
<path transform="matrix(1,0,0,-1,281.2266,175.47461)" d="M0 0C0-4.442-2.832-8.439-7.051-9.938-8.161-10.327-9.272-10.549-10.437-10.549H-10.548-143.854-143.965C-145.131-10.549-146.296-10.327-147.352-9.938-151.571-8.439-154.403-4.442-154.403 0V8.439C-154.403 14.269-149.684 18.988-143.854 18.988H-10.548C-4.774 18.988 0 14.269 0 8.439ZM37.144 96.606C31.814 109.431 19.044 118.537 4.331 118.537H-66.458V83.559H-10.548-10.437C-4.663 83.503 0 78.784 0 73.01V64.571C0 60.073-2.832 56.076-7.051 54.632-8.161 54.244-9.272 54.022-10.437 54.022H-10.548-143.854-143.965C-145.131 54.022-146.296 54.244-147.352 54.632-151.571 56.076-154.403 60.073-154.403 64.571V73.01C-154.403 78.784-149.739 83.503-143.965 83.559H-143.854-142.91V118.537H-158.733C-173.502 118.537-186.216 109.431-191.602 96.606-193.323 92.387-194.267 87.778-194.267 83.004V61.128C-194.267 56.576-193.378 52.078-191.602 47.803-189.936 43.861-187.549 40.03-184.495 36.532-187.549 32.979-189.936 29.204-191.602 25.206-193.323 20.931-194.267 16.49-194.267 11.882V-9.994C-194.267-14.769-193.323-19.321-191.602-23.541-187.771-32.702-180.22-40.142-170.504-43.528-166.728-44.861-162.731-45.583-158.733-45.583H4.331C8.328-45.583 12.271-44.861 16.046-43.528 25.762-40.142 33.368-32.702 37.144-23.541 38.92-19.321 39.864-14.769 39.864-9.994V11.882C39.864 16.49 38.92 20.931 37.144 25.206 35.479 29.204 33.091 32.979 30.093 36.532 33.091 40.03 35.479 43.861 37.144 47.803 38.92 52.078 39.864 56.576 39.864 61.128V83.004C39.864 87.778 38.92 92.387 37.144 96.606" fill="#fcce05"/>
<path transform="matrix(1,0,0,-1,153.0215,71.501819)" d="M0 0H5.122V14.669H10.444V-20.138H5.122V-4.824H0V-20.138H-5.319V14.669H0Z" fill="#ffffff"/>
<path transform="matrix(1,0,0,-1,184.6,56.832918)" d="M0 0V-28.642C0-32.95-2.155-35.105-6.466-35.105H-9.052C-13.36-35.105-15.515-32.95-15.515-28.642V0H-10.196V-28.391C-10.196-29.753-9.515-30.432-8.156-30.432H-7.309C-5.985-30.432-5.322-29.753-5.322-28.391V0Z" fill="#ffffff"/>
<path transform="matrix(1,0,0,-1,195.4859,76.17522)" d="M0 0V-10.792H2.636C3.963-10.792 4.626-10.128 4.626-8.801V-2.188C4.626-.728 3.895 0 2.438 0ZM4.526 12.682C4.526 14.005 3.863 14.669 2.536 14.669H0V4.526H2.338C3.798 4.526 4.526 5.254 4.526 6.714ZM6.864 2.435C8.884 1.74 9.898 .065 9.898-2.586V-9.002C9.898-13.31 7.743-15.465 3.432-15.465H-5.269V19.342H3.332C7.643 19.342 9.798 17.19 9.798 12.879V7.758C9.798 4.939 8.819 3.167 6.864 2.435" fill="#ffffff"/>
</g>
</g>
</svg>
