<svg xmlns="http://www.w3.org/2000/svg" xmlns:xlink="http://www.w3.org/1999/xlink" xmlns:inkscape="http://www.inkscape.org/namespaces/inkscape" version="1.1" width="2384" height="1684" viewBox="0 0 2384 1684">
<defs>
<clipPath id="clip_1">
<path transform="matrix(1,0,0,-1,0,1684)" d="M0 1684H2384V0H0Z"/>
</clipPath>
<clipPath id="clip_2">
<path transform="matrix(1,0,0,-1,0,1684)" d="M0 1684H2384V0H0Z"/>
</clipPath>
<clipPath id="clip_3">
<path transform="matrix(1,0,0,-1,0,1684)" d="M0 1684H2384V0H0Z"/>
</clipPath>
<clipPath id="clip_4">
<path transform="matrix(1,0,0,-1,0,1684)" d="M912.8 1354.24H2264.23V1507.26H912.8Z"/>
</clipPath>
<clipPath id="clip_5">
<path transform="matrix(1,0,0,-1,0,1684)" d="M-1.57735-31.9162H2262.86V1887.84H-1.57735Z"/>
</clipPath>
<path id="font_6_2" d="M.23298645 .3263855C.25 .3903656 .2669983 .46736146 .2829895 .5353546H.2869873C.3039856 .46736146 .32099916 .3903656 .33799745 .3263855L.35198976 .27038575H.21899414L.23298645 .3263855M-.008010864 0H.15098572L.18899536 .15039063H.38198854L.41999818 0H.58399966L.3809967 .6513672H.19499207L-.008010864 0Z"/>
<path id="font_6_8" d="M.28199769-.01171875C.33499146-.01171875 .397995 .0032806397 .44599916 .04727173L.38598634 .14421082C.36099244 .1252594 .33299256 .11328125 .2999878 .11328125 .23899842 .11328125 .19299317 .16618347 .19299317 .24902344 .19299317 .33087159 .23599243 .38478089 .30499269 .38478089 .32699586 .38478089 .34599305 .37779237 .36898805 .36082459L.44099427 .45578004C.4039917 .4877777 .35699464 .50878909 .29599 .50878909 .1579895 .50878909 .034988405 .41378785 .034988405 .24902344 .034988405 .08427429 .14199829-.01171875 .28199769-.01171875Z"/>
<path id="font_6_10" d="M.2869873-.01171875C.34599305-.01171875 .4139862 .0072784426 .46598817 .044281007L.41600038 .13723755C.3809967 .117263797 .34498597 .106277469 .30899049 .106277469 .24598694 .106277469 .19898987 .13523865 .18499756 .20214844H.47799684C.48098756 .21614075 .48399354 .24214173 .48399354 .2701416 .48399354 .40478517 .4139862 .50878909 .269989 .50878909 .15098572 .50878909 .034988405 .40977479 .034988405 .24914551 .034988405 .08326721 .14498902-.01171875 .2869873-.01171875M.18299866 .30613709C.19299317 .3638916 .22999573 .39178468 .27398683 .39178468 .32998658 .39178468 .35198976 .3549347 .35198976 .30613709H.18299866Z"/>
<path id="font_6_19" d="M.21199036-.01171875C.34700013-.01171875 .4189911 .059280397 .4189911 .15019226 .4189911 .23205567 .35899354 .27697755 .2829895 .30093385 .21998596 .3209076 .19198609 .33288575 .19198609 .35884095 .19198609 .38079835 .20899964 .3947754 .24499512 .3947754 .2789917 .3947754 .31599427 .38479615 .35198976 .35884095L.41799928 .44578553C.375 .481781 .31298829 .50878909 .23999024 .50878909 .12399292 .50878909 .04798889 .44578553 .04798889 .35185243 .04798889 .27497865 .10798645 .23005677 .1789856 .20410156 .23199463 .18414307 .27398683 .17115784 .27398683 .14120484 .27398683 .117248538 .25698854 .10227966 .21499634 .10227966 .17599488 .10227966 .1309967 .11425781 .084991458 .15019226L.019989014 .0632782C.069992069 .014266968 .1459961-.01171875 .21199036-.01171875Z"/>
<path id="font_6_1" d=""/>
<path id="font_6_18" d="M.06298828 0H.21699524V.28404237C.24299622 .35005189 .28799439 .3740692 .32499696 .3740692 .34700013 .3740692 .35798646 .37205506 .37599183 .36805726L.40499879 .49902345C.3909912 .50605776 .37399293 .5090637 .34498597 .5090637 .29499818 .5090637 .23999024 .47805787 .20399475 .41104127H.19999695L.18899536 .4970703H.06298828V0Z"/>
<path id="font_6_17" d="M.27799989-.01171875C.40499879-.01171875 .5219879 .08427429 .5219879 .24902344 .5219879 .41378785 .40499879 .50878909 .27799989 .50878909 .1519928 .50878909 .034988405 .41378785 .034988405 .24902344 .034988405 .08427429 .1519928-.01171875 .27799989-.01171875M.27799989 .11328125C.21998596 .11328125 .19299317 .16618347 .19299317 .24902344 .19299317 .33087159 .21998596 .38478089 .27799989 .38478089 .33599855 .38478089 .36299134 .33087159 .36299134 .24902344 .36299134 .16618347 .33599855 .11328125 .27799989 .11328125Z"/>
<path id="font_6_6" d="M.18899536-.01171875C.24499512-.01171875 .2899933 .0132751469 .33099366 .05027771H.33499146L.34599305 0H.47200013V.2818451C.47200013 .43777467 .3999939 .50878909 .27198792 .50878909 .19400025 .50878909 .12298584 .4837799 .057998659 .44378663L.11199951 .34381105C.1619873 .37179566 .20199585 .38578797 .24198914 .38578797 .29299928 .38578797 .31399537 .36180116 .31799317 .32081605 .12199402 .30082704 .040985109 .24386597 .040985109 .13891602 .040985109 .056274415 .09799194-.01171875 .18899536-.01171875M.24198914 .10827637C.20799256 .10827637 .18899536 .12225342 .18899536 .15119934 .18899536 .18614197 .21899414 .21308899 .31799317 .22605896V.14720154C.2939911 .12324524 .272995 .10827637 .24198914 .10827637Z"/>
<path id="font_6_9" d="M.24099732-.01171875C.28799439-.01171875 .33699037 .0132751469 .37199403 .04827881H.375L.38598634 0H.5130005V.69877627H.35798646V.53178408L.36299134 .45777894C.33099366 .4887848 .2979889 .50878909 .24299622 .50878909 .13999939 .50878909 .037994386 .41078187 .037994386 .24885559 .037994386 .08728027 .117996219-.01171875 .24099732-.01171875M.28199769 .11528015C.22898865 .11528015 .19699097 .15519715 .19699097 .25003053 .19699097 .34284974 .23599243 .38278199 .27999879 .38278199 .30499269 .38278199 .33399964 .37478639 .35798646 .35383607V.15620423C.33499146 .1252594 .31199647 .11528015 .28199769 .11528015Z"/>
<path id="font_6_20" d="M.2579956-.01171875C.30699159-.01171875 .34498597-.0017242432 .37098695 .008270264L.34700013 .11627197C.33399964 .11126709 .31698609 .10926819 .30099488 .10926819 .2639923 .10926819 .23799134 .13026428 .23799134 .18621826V.37606813H.35499574V.4970703H.23799134V.6490631H.10998535L.09199524 .4970703 .015991211 .49206544V.37606813H.08299255V.18421936C.08299255 .067276 .13398743-.01171875 .2579956-.01171875Z"/>
<path id="font_6_3" d="M.07499695 0H.23098755V.26831056H.44599916V0H.6009979V.65130618H.44599916V.4033203H.23098755V.65130618H.07499695V0Z"/>
<path id="font_6_21" d="M.21299744-.01171875C.27999879-.01171875 .32699586 .01927185 .36799623 .06826782H.37199403L.3829956 0H.5089874V.4970703H.35398866V.17124939C.32699586 .13426209 .30599977 .120269779 .2709961 .120269779 .23098755 .120269779 .21299744 .14025879 .21299744 .20922852V.4970703H.057998659V.1892395C.057998659 .0652771 .10398865-.01171875 .21299744-.01171875Z"/>
<path id="font_6_7" d="M.32899476-.01171875C.43598939-.01171875 .5369873 .08627319 .5369873 .25701905 .5369873 .40977479 .46199037 .50878909 .34199525 .50878909 .29599 .50878909 .25099183 .4887848 .21398926 .45578004L.21699524 .530777V.69877627H.06298828V0H.18399048L.19599915 .053268434H.19999695C.23899842 .010269165 .28399659-.01171875 .32899476-.01171875M.2919922 .11528015C.2679901 .11528015 .24198914 .12225342 .21699524 .14422608V.34085084C.24398804 .36979676 .2679901 .38278199 .29699708 .38278199 .35198976 .38278199 .37799073 .3418579 .37799073 .25502015 .37799073 .15420532 .33999635 .11528015 .2919922 .11528015Z"/>
<path id="font_6_24" d="M.2649994-.01171875C.40098573-.01171875 .49198915 .06427002 .49198915 .16529846 .49198915 .24932862 .44299317 .2983551 .38198854 .33137513V.33537293C.42599488 .36437989 .46499635 .4123993 .46499635 .47242738 .46499635 .5784607 .3869934 .64746096 .269989 .64746096 .1499939 .64746096 .06399536 .5794525 .06399536 .47042848 .06399536 .4044037 .09899902 .3573761 .14898682 .32035829V.31636048C.08898926 .28434754 .041992189 .23832703 .041992189 .16230774 .041992189 .059280397 .13699341-.01171875 .2649994-.01171875M.3039856 .37239076C.24099732 .3973999 .19999695 .42140199 .19999695 .47042848 .19999695 .5174408 .22999573 .54045107 .2659912 .54045107 .31199647 .54045107 .33898927 .5094452 .33898927 .46142579 .33898927 .43040467 .32699586 .4013977 .3039856 .37239076M.2679901 .09527588C.21798706 .09527588 .1749878 .12628174 .1749878 .18031311 .1749878 .21731568 .19400025 .2523346 .21899414 .27635194 .29699708 .24333191 .34799195 .22332764 .34799195 .17030335 .34799195 .11828613 .31298829 .09527588 .2679901 .09527588Z"/>
<path id="font_6_4" d="M.21798706-.01171875C.37098695-.01171875 .44099427 .09527588 .44099427 .22528076V.65127566H.28599549V.23828125C.28599549 .14927674 .2579956 .12226868 .20199585 .12226868 .16699219 .12226868 .13398743 .14227295 .115997318 .17727661L.017990113 .11027527C.05999756 .026275635 .125-.01171875 .21798706-.01171875Z"/>
<path id="font_6_15" d="M.20399475-.01171875C.23799134-.01171875 .2639923-.005722046 .2809906 .0012664795L.2630005 .11528015C.25498963 .11328125 .25099183 .11328125 .24499512 .11328125 .23298645 .11328125 .21699524 .12327576 .21699524 .15527344V.6992798H.06298828V.16127014C.06298828 .057266237 .09799194-.01171875 .20399475-.01171875Z"/>
<path id="font_6_16" d="M.06298828 0H.21699524V.3330536C.24798584 .36105348 .2689972 .37806703 .3039856 .37806703 .34399415 .37806703 .3619995 .35705567 .3619995 .28804017V0H.5169983V.30804444C.5169983 .43177796 .47099305 .50878909 .36299134 .50878909 .29499818 .50878909 .24499512 .47477723 .20399475 .43478395H.19999695L.18899536 .4970703H.06298828V0Z"/>
<path id="font_7_5" d="M.22599793 0H.30999757V.5852356H.5089874V.65625H.027999878V.5852356H.22599793V0Z"/>
<path id="font_7_13" d="M.2709961-.01171875C.3899994-.01171875 .49699403 .08125305 .49699403 .24215698 .49699403 .4050598 .3899994 .49804688 .2709961 .49804688 .1519928 .49804688 .04598999 .4050598 .04598999 .24215698 .04598999 .08125305 .1519928-.01171875 .2709961-.01171875M.2709961 .057266237C.18798828 .057266237 .13198853 .13122559 .13198853 .24215698 .13198853 .35409547 .18798828 .42904664 .2709961 .42904664 .35499574 .42904664 .41099549 .35409547 .41099549 .24215698 .41099549 .13122559 .35499574 .057266237 .2709961 .057266237Z"/>
<path id="font_7_1" d=""/>
<path id="font_7_4" d="M.27198792-.01171875C.4099884-.01171875 .49598695 .0712738 .49598695 .17520142 .49598695 .27215577 .43699647 .31811524 .36099244 .35009767L.2669983 .39108277C.21598816 .4120636 .15899658 .43605042 .15899658 .49900819 .15899658 .5569763 .20698548 .5939636 .27999879 .5939636 .33699037 .5939636 .3880005 .5709686 .42799378 .5329895L.47399903 .58895877C.42799378 .634964 .3600006 .66796877 .27999879 .66796877 .16099549 .66796877 .07398987 .5939636 .07398987 .49401856 .07398987 .39707948 .14498902 .35110475 .20599365 .32511903L.30099488 .2831421C.3619995 .25616456 .4099884 .23516846 .4099884 .16821289 .4099884 .10525513 .35899354 .06227112 .272995 .06227112 .20399475 .06227112 .13699341 .09225464 .08898926 .1412201L.041992189 .086257938C.09899902 .025268555 .17799378-.01171875 .27198792-.01171875Z"/>
<path id="font_7_8" d="M.27799989-.01171875C.34498597-.01171875 .39698792 .008270264 .43899537 .038269044L.4099884 .09124756C.37599183 .06826782 .33499146 .055267335 .28799439 .055267335 .19599915 .055267335 .1349945 .12123108 .12799073 .22114563H.45498658C.45799256 .2371521 .45899964 .2521515 .45899964 .2701416 .45899964 .41004945 .3880005 .49804688 .2639923 .49804688 .15299988 .49804688 .04598999 .401062 .04598999 .2431488 .04598999 .08226013 .147995-.01171875 .27799989-.01171875M.12799073 .28515626C.13798523 .37808229 .19799805 .43203736 .2659912 .43203736 .33999635 .43203736 .3849945 .381073 .3849945 .28515626H.12799073Z"/>
<path id="font_7_15" d="M.08198547 0H.16499329V.31202699C.19799805 .3940277 .24699402 .42303468 .28799439 .42303468 .30699159 .42303468 .31799317 .42103578 .33198548 .41703797L.34999085 .48828126C.33499146 .4950409 .31999208 .49804688 .2979889 .49804688 .24398804 .49804688 .19400025 .4590454 .1599884 .39804078H.15699768L.1499939 .48632813H.08198547V0Z"/>
<path id="font_7_11" d="M.08198547 0H.16499329V.35203553C.20999146 .40203858 .25 .42604066 .28599549 .42604066 .34799195 .42604066 .37599183 .388031 .37599183 .2970276V0H.45899964V.35203553C.5039978 .40203858 .54299929 .42604066 .58099368 .42604066 .6419983 .42604066 .67099 .388031 .67099 .2970276V0H.7539978V.30802918C.7539978 .43203736 .70599368 .49804688 .60598757 .49804688 .5469971 .49804688 .49598695 .46003724 .44599916 .40603639 .42599488 .4630432 .38598634 .49804688 .31098939 .49804688 .25299073 .49804688 .20298767 .46203614 .1599884 .41603089H.15699768L.1499939 .48632813H.08198547V0Z"/>
<path id="font_7_7" d="M.29699708-.01171875C.4079895-.01171875 .5079956 .085250858 .5079956 .2511444 .5079956 .401062 .43998719 .49804688 .31498719 .49804688 .26098634 .49804688 .20698548 .46903993 .1619873 .43104554L.16499329 .51802065V.71191409H.08198547V0H.147995L.1559906 .05027771H.15899658C.20199585 .011276245 .2519989-.01171875 .29699708-.01171875M.2829895 .058273317C.25099183 .058273317 .20698548 .071258548 .16499329 .10824585V.3620758C.21099854 .40605165 .25299073 .42803956 .2939911 .42803956 .3849945 .42803956 .42199708 .35708619 .42199708 .2501526 .42199708 .13023377 .36299134 .058273317 .2829895 .058273317Z"/>
<path id="font_7_6" d="M.19400025-.01171875C.25498963-.01171875 .30799867 .01927185 .35398866 .058273317H.35699464L.36499024 0H.43299867V.2990265C.43299867 .41903688 .38198854 .49804688 .2639923 .49804688 .18598938 .49804688 .117996219 .4650421 .07299805 .43504334L.10499573 .37902833C.14299011 .40403749 .19400025 .42904664 .25 .42904664 .32899476 .42904664 .34899903 .37002564 .34999085 .309021 .14199829 .286026 .051986696 .23402405 .051986696 .12600708 .051986696 .038269044 .11299133-.01171875 .19400025-.01171875M.21699524 .056274415C.16999817 .056274415 .1329956 .07725525 .1329956 .13122559 .1329956 .19418335 .18598938 .23117066 .34999085 .2501526V.11824036C.30299378 .07725525 .2639923 .056274415 .21699524 .056274415Z"/>
<path id="font_7_12" d="M.08198547 0H.16499329V.35203553C.21299744 .4010315 .24798584 .42604066 .29699708 .42604066 .36099244 .42604066 .3889923 .388031 .3889923 .2970276V0H.47200013V.30802918C.47200013 .43203736 .42599488 .49804688 .32299806 .49804688 .2559967 .49804688 .20599365 .46203614 .1599884 .41603089H.15699768L.1499939 .48632813H.08198547V0Z"/>
<path id="font_6_5" d="M.07499695 0H.48399354V.12998963H.23098755V.651001H.07499695V0Z"/>
<path id="font_6_14" d="M.06298828 0H.21598816V.12301636L.272995 .18901062 .3809967 0H.548996L.3639984 .29003907 .5369873 .4970703H.36698915L.21899414 .30903626H.21598816V.69906619H.06298828V0Z"/>
<path id="font_6_13" d="M.06298828 0H.21699524V.4970703H.06298828V0M.13999939 .5673828C.19099427 .5673828 .22698975 .5983734 .22698975 .6473694 .22698975 .69537356 .19099427 .7263794 .13999939 .7263794 .08898926 .7263794 .052993776 .69537356 .052993776 .6473694 .052993776 .5983734 .08898926 .5673828 .13999939 .5673828Z"/>
<path id="font_6_11" d="M.24099732-.20898438C.4139862-.20898438 .522995-.1349945 .522995-.030288697 .522995 .059677125 .45399476 .09667969 .33099366 .09667969H.2519989C.19898987 .09667969 .1789856 .10772705 .1789856 .13186646 .1789856 .14794922 .18399048 .1559906 .19499207 .1659851 .21699524 .1599884 .23699951 .15699768 .2539978 .15699768 .3639984 .15699768 .45199586 .20799256 .45199586 .32403565 .45199586 .34803773 .44499208 .37106324 .43699647 .38505555H.5149994V.4970703H.33198548C.30899049 .504776 .28199769 .50878909 .2539978 .50878909 .1459961 .50878909 .04598999 .44978334 .04598999 .32888795 .04598999 .27096559 .07798767 .22499085 .11299133 .20098877V.19699097C.08099365 .17399597 .057998659 .13789368 .057998659 .10270691 .057998659 .061676027 .07699585 .03567505 .102996829 .017669678V.013671875C.056991579-.0103302 .032989503-.04324341 .032989503-.08409119 .032989503-.17298889 .12599182-.20898438 .24099732-.20898438M.2539978 .25C.21798706 .25 .19099427 .27700807 .19099427 .32902528 .19099427 .38005067 .21699524 .4060669 .2539978 .4060669 .29100038 .4060669 .31698609 .38005067 .31698609 .32902528 .31698609 .27700807 .29100038 .25 .2539978 .25M.2659912-.11299133C.20199585-.11299133 .1599884-.095062259 .1599884-.059188844 .1599884-.04324341 .16799927-.029296875 .18399048-.015335083 .19898987-.019332886 .21798706-.021331788 .2539978-.021331788H.3019867C.34899903-.021331788 .375-.027297974 .375-.05718994 .375-.08908081 .32899476-.11299133 .2659912-.11299133Z"/>
<path id="font_6_12" d="M.06298828 0H.21699524V.33280946C.24798584 .36079408 .2689972 .3777771 .3039856 .3777771 .34399415 .3777771 .3619995 .35679627 .3619995 .28782655V0H.5169983V.30781556C.5169983 .43177796 .47099305 .50878909 .36299134 .50878909 .29499818 .50878909 .24699402 .47477723 .20999146 .44178773L.21699524 .530777V.69877627H.06298828V0Z"/>
<path id="font_6_22" d="M.14698792 0H.32598878L.36499024 .19100952C.37399293 .23703003 .37998963 .28105165 .3880005 .33805848H.3919983C.3999939 .28105165 .4079895 .23703003 .4169922 .19100952L.45700074 0H.6409912L.7579956 .4970703H.61499026L.57099917 .27304078C.56199648 .22502136 .55799868 .17701721 .548996 .12298584H.54499819C.5359955 .17701721 .5269928 .22502136 .5159912 .27304078L.46299745 .4970703H.32598878L.2749939 .27304078C.2639923 .22602844 .2559967 .17701721 .24699402 .12298584H.24299622C.23599243 .17701721 .22999573 .22502136 .22200012 .27304078L.1769867 .4970703H.023986817L.14698792 0Z"/>
<path id="font_6_23" d="M.12399292-.19238281C.24299622-.19238281 .29599-.12939453 .34498597-.0013275147L.5159912 .4970703H.36799623L.31098939 .29089356C.2979889 .24386597 .28799439 .19682312 .2769928 .14978028H.272995C.2599945 .19882202 .24899292 .24485779 .23498535 .29089356L.16699219 .4970703H.011993408L.20298767 .013671875 .19599915-.010345459C.18399048-.04637146 .1599884-.071395877 .11199951-.071395877 .101989749-.071395877 .09498596-.070388797 .07899475-.06639099L.051986696-.1803894C.07199097-.18838501 .09199524-.19238281 .12399292-.19238281Z"/>
<path id="font_7_17" d="M.1599884 0H.2599945L.32499696 .2611847C.33799745 .30522157 .34700013 .3482666 .35598756 .4053192H.3600006C.37098695 .3482666 .37998963 .30622865 .3919983 .2611847L.45799256 0H.5629883L.69400027 .48632813H.61499026L.5439911 .20413208C.5329895 .16007996 .5249939 .11804199 .5149994 .06599426H.5109863C.5009918 .11804199 .48999024 .16007996 .47898866 .20413208L.40499879 .48632813H.31599427L.24299622 .20413208C.23199463 .16007996 .22299195 .11804199 .21299744 .06599426H.20899964C.20098877 .11804199 .19099427 .16007996 .17999268 .20413208L.10899353 .48632813H.023986817L.1599884 0Z"/>
<path id="font_7_9" d="M.24598694-.22363281C.39698792-.22363281 .49198915-.1456604 .49198915-.054763795 .49198915 .025177002 .43499757 .061172487 .32199098 .061172487H.22799683C.16299439 .061172487 .14299011 .08320618 .14299011 .11323547 .14299011 .14027405 .1559906 .15629578 .17399597 .17129517 .19599915 .16029358 .22200012 .15429688 .24598694 .15429688 .34498597 .15429688 .42399598 .21928406 .42399598 .32330323 .42399598 .36431886 .4079895 .40031434 .3849945 .4223175H.48399354V.48632813H.31498719C.29699708 .493042 .272995 .49804688 .24598694 .49804688 .14698792 .49804688 .06298828 .43104554 .06298828 .3251648 .06298828 .26722718 .09399414 .22027588 .12599182 .19429016V.19029236C.100997928 .17329407 .07299805 .14128113 .07299805 .10021973 .07299805 .062179567 .09199524 .03617859 .115997318 .0211792V.017181397C.07199097-.012817383 .04499817-.05177307 .04499817-.09272766 .04499817-.17663574 .1269989-.22363281 .24598694-.22363281M.24598694 .21029663C.18998719 .21029663 .14299011 .25424195 .14299011 .3251648 .14299011 .39608766 .18899536 .43803407 .24598694 .43803407 .30299378 .43803407 .34899903 .39508058 .34899903 .3251648 .34899903 .25424195 .3019867 .21029663 .24598694 .21029663M.2579956-.16563416C.16999817-.16563416 .116989139-.13371277 .116989139-.081832889 .116989139-.053894044 .13198853-.02494812 .16699219 0 .18798828-.0058135988 .21099854-.0078125 .22999573-.0078125H.31298829C.3769989-.0078125 .41099549-.02279663 .41099549-.06774902 .41099549-.117752078 .34999085-.16563416 .2579956-.16563416Z"/>
<path id="font_7_2" d="M.08999634 0H.17399597V.20707703L.28599549 .3401184 .48098756 0H.57499697L.33799745 .4061432 .5439911 .65625H.44799806L.1769867 .32810975H.17399597V.65625H.08999634V0Z"/>
<path id="font_7_16" d="M.22399903-.01171875C.29100038-.01171875 .33898927 .023269654 .38398744 .07627869H.3869934L.3939972 0H.46199037V.48632813H.3789978V.14228821C.33399964 .08528137 .29899598 .060272218 .25 .060272218 .18598938 .060272218 .1579895 .09927368 .1579895 .18928528V.48632813H.07499695V.17828369C.07499695 .054275514 .12098694-.01171875 .22399903-.01171875Z"/>
<path id="font_7_10" d="M.16899109-.01171875C.18998719-.01171875 .20498657-.008728027 .21699524-.0027313233L.20599365 .059265138C.19799805 .057266237 .19400025 .057266237 .18899536 .057266237 .17599488 .057266237 .16499329 .06626892 .16499329 .09225464V.71191409H.08198547V.09825134C.08198547 .028274537 .10699463-.01171875 .16899109-.01171875Z"/>
<path id="font_7_3" d="M.08999634 0H.45999146V.070999149H.17399597V.65625H.08999634V0Z"/>
<path id="font_7_14" d="M.08198547-.20507813H.16499329V-.040786745L.16299439 .044281007C.20698548 .009277344 .25299073-.01171875 .29699708-.01171875 .4079895-.01171875 .5079956 .085250858 .5079956 .2501526 .5079956 .401062 .43998719 .49804688 .31498719 .49804688 .25898744 .49804688 .20399475 .46704103 .1599884 .43003846H.15699768L.1499939 .48632813H.08198547V-.20507813M.2829895 .058273317C.25099183 .058273317 .20899964 .0712738 .16499329 .10827637V.3620758C.21199036 .40605165 .25299073 .42803956 .2939911 .42803956 .3849945 .42803956 .42199708 .35708619 .42199708 .2501526 .42199708 .13027954 .36299134 .058273317 .2829895 .058273317Z"/>
</defs>
<g>
<g inkscape:groupmode="layer" inkscape:label="backup">
<g clip-path="url(#clip_1)">
</g>
</g>
<g inkscape:groupmode="layer" inkscape:label="perimeter">
<path transform="matrix(1,0,0,-1,1918.93,1015.6)" d="M0 0 4.343-319.602-999.777-334.722-1185.577-337.522-1302.5-340.962-1206.24-188.4-1094.52 164.28-1069.44 264.48-1003.2 254.88-987.12 506.4-1096.283 520.02-991.583 735-969.924 752.04 51.72 688.92Z" fill="#f1f2f2"/>
<path transform="matrix(1,0,0,-1,1918.93,1015.6)" stroke-width="6" stroke-linecap="butt" stroke-miterlimit="10" stroke-linejoin="miter" fill="none" stroke="#231f20" d="M0 0 4.343-319.602-999.777-334.722-1185.577-337.522-1302.5-340.962-1206.24-188.4-1094.52 164.28-1069.44 264.48-1003.2 254.88-987.12 506.4-1096.283 520.02-991.583 735-969.924 752.04 51.72 688.92 0 0Z"/>
</g>
<g inkscape:groupmode="layer" inkscape:label="amenities">
</g>
<g inkscape:groupmode="layer" inkscape:label="unit">
<path transform="matrix(1,0,0,-1,0,1684)" d="M1170.37 819.96H1078.21V917.88H1170.37Z" fill="#fccd07"/>
<path transform="matrix(1,0,0,-1,0,1684)" stroke-width="1" stroke-linecap="butt" stroke-miterlimit="10" stroke-linejoin="miter" fill="none" stroke="#231f20" d="M1170.37 819.96H1078.21V917.88H1170.37Z"/>
<path transform="matrix(1,0,0,-1,0,1684)" d="M1103.584 1097.28H1011.42398V1195.2001H1103.584Z" fill="#fccd07"/>
<path transform="matrix(1,0,0,-1,0,1684)" stroke-width="1" stroke-linecap="butt" stroke-miterlimit="10" stroke-linejoin="miter" fill="none" stroke="#231f20" d="M1103.584 1097.28H1011.42398V1195.2001H1103.584Z"/>
<path transform="matrix(1,0,0,-1,0,1684)" d="M1137.57 686.933H1045.4099V784.85299H1137.57Z" fill="#fccd07"/>
<path transform="matrix(1,0,0,-1,0,1684)" stroke-width="1" stroke-linecap="butt" stroke-miterlimit="10" stroke-linejoin="miter" fill="none" stroke="#231f20" d="M1137.57 686.933H1045.4099V784.85299H1137.57Z"/>
<path transform="matrix(1,0,0,-1,0,1684)" d="M1690.33 687.809H1609.252V785.729H1690.33Z" fill="#8299dc"/>
<path transform="matrix(1,0,0,-1,0,1684)" stroke-width="1" stroke-linecap="butt" stroke-miterlimit="10" stroke-linejoin="miter" fill="none" stroke="#231f20" d="M1690.33 687.809H1609.252V785.729H1690.33Z"/>
<path transform="matrix(1,0,0,-1,0,1684)" d="M1308.61 819.96H1227.97V917.88H1308.61Z" fill="#bbf1c7"/>
<path transform="matrix(1,0,0,-1,0,1684)" stroke-width="1" stroke-linecap="butt" stroke-miterlimit="10" stroke-linejoin="miter" fill="none" stroke="#231f20" d="M1308.61 819.96H1227.97V917.88H1308.61Z"/>
<path transform="matrix(1,0,0,-1,0,1684)" d="M1446.85 819.96H1366.21V917.88H1446.85Z" fill="#bbf1c7"/>
<path transform="matrix(1,0,0,-1,0,1684)" stroke-width="1" stroke-linecap="butt" stroke-miterlimit="10" stroke-linejoin="miter" fill="none" stroke="#231f20" d="M1446.85 819.96H1366.21V917.88H1446.85Z"/>
<path transform="matrix(1,0,0,-1,0,1684)" d="M1585.09 819.96H1504.45V917.88H1585.09Z" fill="#bbf1c7"/>
<path transform="matrix(1,0,0,-1,0,1684)" stroke-width="1" stroke-linecap="butt" stroke-miterlimit="10" stroke-linejoin="miter" fill="none" stroke="#231f20" d="M1585.09 819.96H1504.45V917.88H1585.09Z"/>
<path transform="matrix(1,0,0,-1,0,1684)" d="M1240.238 1097.28H1159.598V1195.2001H1240.238Z" fill="#bbf1c7"/>
<path transform="matrix(1,0,0,-1,0,1684)" stroke-width="1" stroke-linecap="butt" stroke-miterlimit="10" stroke-linejoin="miter" fill="none" stroke="#231f20" d="M1240.238 1097.28H1159.598V1195.2001H1240.238Z"/>
<path transform="matrix(1,0,0,-1,0,1684)" d="M1378.478 1097.28H1297.838V1195.2001H1378.478Z" fill="#bbf1c7"/>
<path transform="matrix(1,0,0,-1,0,1684)" stroke-width="1" stroke-linecap="butt" stroke-miterlimit="10" stroke-linejoin="miter" fill="none" stroke="#231f20" d="M1378.478 1097.28H1297.838V1195.2001H1378.478Z"/>
<path transform="matrix(1,0,0,-1,0,1684)" d="M1516.718 1097.28H1436.078V1195.2001H1516.718Z" fill="#bbf1c7"/>
<path transform="matrix(1,0,0,-1,0,1684)" stroke-width="1" stroke-linecap="butt" stroke-miterlimit="10" stroke-linejoin="miter" fill="none" stroke="#231f20" d="M1516.718 1097.28H1436.078V1195.2001H1516.718Z"/>
<path transform="matrix(1,0,0,-1,0,1684)" d="M1275.172 686.933H1194.532V784.85299H1275.172Z" fill="#bbf1c7"/>
<path transform="matrix(1,0,0,-1,0,1684)" stroke-width="1" stroke-linecap="butt" stroke-miterlimit="10" stroke-linejoin="miter" fill="none" stroke="#231f20" d="M1275.172 686.933H1194.532V784.85299H1275.172Z"/>
<path transform="matrix(1,0,0,-1,0,1684)" d="M1413.412 686.933H1332.772V784.85299H1413.412Z" fill="#bbf1c7"/>
<path transform="matrix(1,0,0,-1,0,1684)" stroke-width="1" stroke-linecap="butt" stroke-miterlimit="10" stroke-linejoin="miter" fill="none" stroke="#231f20" d="M1413.412 686.933H1332.772V784.85299H1413.412Z"/>
<path transform="matrix(1,0,0,-1,0,1684)" d="M1551.652 686.933H1471.012V784.85299H1551.652Z" fill="#bbf1c7"/>
<path transform="matrix(1,0,0,-1,0,1684)" stroke-width="1" stroke-linecap="butt" stroke-miterlimit="10" stroke-linejoin="miter" fill="none" stroke="#231f20" d="M1551.652 686.933H1471.012V784.85299H1551.652Z"/>
<path transform="matrix(1,0,0,-1,0,1684)" d="M1734.85 819.96H1642.69V917.88H1734.85Z" fill="#fccd07"/>
<path transform="matrix(1,0,0,-1,0,1684)" stroke-width="1" stroke-linecap="butt" stroke-miterlimit="10" stroke-linejoin="miter" fill="none" stroke="#231f20" d="M1734.85 819.96H1642.69V917.88H1734.85Z"/>
<path transform="matrix(1,0,0,-1,0,1684)" d="M1655.332 1097.28H1574.29V1178.322H1655.332Z" fill="#e99614"/>
<path transform="matrix(1,0,0,-1,0,1684)" stroke-width="1" stroke-linecap="butt" stroke-miterlimit="10" stroke-linejoin="miter" fill="none" stroke="#231f20" d="M1655.332 1097.28H1574.29V1178.322H1655.332Z"/>
<path transform="matrix(1,0,0,-1,0,1684)" d="M1793.307 1097.28H1712.265V1178.322H1793.307Z" fill="#ffcbbb"/>
<path transform="matrix(1,0,0,-1,0,1684)" stroke-width="1" stroke-linecap="butt" stroke-miterlimit="10" stroke-linejoin="miter" fill="none" stroke="#231f20" d="M1793.307 1097.28H1712.265V1178.322H1793.307Z"/>
<path transform="matrix(1,0,0,-1,0,1684)" d="M1640.505 427.142H1559.463V508.184H1640.505Z" fill="#e99614"/>
<path transform="matrix(1,0,0,-1,0,1684)" stroke-width="1" stroke-linecap="butt" stroke-miterlimit="10" stroke-linejoin="miter" fill="none" stroke="#231f20" d="M1640.505 427.142H1559.463V508.184H1640.505Z"/>
<path transform="matrix(1,0,0,-1,0,1684)" d="M1502.195 427.142H1421.153V508.184H1502.195Z" fill="#e99614"/>
<path transform="matrix(1,0,0,-1,0,1684)" stroke-width="1" stroke-linecap="butt" stroke-miterlimit="10" stroke-linejoin="miter" fill="none" stroke="#231f20" d="M1502.195 427.142H1421.153V508.184H1502.195Z"/>
<path transform="matrix(1,0,0,-1,0,1684)" d="M1363.884 427.142H1282.842V508.184H1363.884Z" fill="#e99614"/>
<path transform="matrix(1,0,0,-1,0,1684)" stroke-width="1" stroke-linecap="butt" stroke-miterlimit="10" stroke-linejoin="miter" fill="none" stroke="#231f20" d="M1363.884 427.142H1282.842V508.184H1363.884Z"/>
<path transform="matrix(1,0,0,-1,0,1684)" d="M1225.574 427.142H1144.532V508.184H1225.574Z" fill="#e99614"/>
<path transform="matrix(1,0,0,-1,0,1684)" stroke-width="1" stroke-linecap="butt" stroke-miterlimit="10" stroke-linejoin="miter" fill="none" stroke="#231f20" d="M1225.574 427.142H1144.532V508.184H1225.574Z"/>
<path transform="matrix(1,0,0,-1,0,1684)" d="M1087.264 427.142H1006.22207V508.184H1087.264Z" fill="#e99614"/>
<path transform="matrix(1,0,0,-1,0,1684)" stroke-width="1" stroke-linecap="butt" stroke-miterlimit="10" stroke-linejoin="miter" fill="none" stroke="#231f20" d="M1087.264 427.142H1006.22207V508.184H1087.264Z"/>
<path transform="matrix(1,0,0,-1,0,1684)" d="M1778.48 427.142H1697.438V508.184H1778.48Z" fill="#ffcbbb"/>
<path transform="matrix(1,0,0,-1,0,1684)" stroke-width="1" stroke-linecap="butt" stroke-miterlimit="10" stroke-linejoin="miter" fill="none" stroke="#231f20" d="M1778.48 427.142H1697.438V508.184H1778.48Z"/>
<path transform="matrix(1,0,0,-1,0,1684)" d="M949.007 427.142H867.965V508.184H949.007Z" fill="#ffcbbb"/>
<path transform="matrix(1,0,0,-1,0,1684)" stroke-width="1" stroke-linecap="butt" stroke-miterlimit="10" stroke-linejoin="miter" fill="none" stroke="#231f20" d="M949.007 427.142H867.965V508.184H949.007Z"/>
</g>
<g inkscape:groupmode="layer" inkscape:label="plot">
<path transform="matrix(1,0,0,-1,1793.3202,881.32)" stroke-width="1" stroke-linecap="butt" stroke-miterlimit="10" stroke-linejoin="miter" fill="none" stroke="#231f20" d="M0 0H-794.27"/>
<path transform="matrix(1,0,0,-1,0,1684)" stroke-width="1" stroke-linecap="butt" stroke-miterlimit="10" stroke-linejoin="miter" fill="none" stroke="#231f20" d="M1807.21 409.92H839.52999V559.68H1807.21Z"/>
<path transform="matrix(1,0,0,-1,1807.2101,1124.3201)" stroke-width="1" stroke-linecap="butt" stroke-miterlimit="10" stroke-linejoin="miter" fill="none" stroke="#231f20" d="M0 0V9.72L132.36 484.44 157.66 797.98"/>
<g clip-path="url(#clip_2)">
<path transform="matrix(1,0,0,-1,964.84,638.19998)" stroke-width="1" stroke-linecap="butt" stroke-miterlimit="10" stroke-linejoin="miter" fill="none" stroke="#231f20" d="M0 0-43.25-243.67-65.51-369.1-69.52-391.72C-71.41-402.39-80.69-410.16-91.52-410.16H-148.23V-635.806L-125.31-635.926"/>
<path transform="matrix(1,0,0,-1,1091.1567,881.32)" stroke-width="1" stroke-linecap="butt" stroke-miterlimit="10" stroke-linejoin="miter" fill="none" stroke="#231f20" d="M0 0V-167.04"/>
<path transform="matrix(1,0,0,-1,1166.0505,881.32)" stroke-width="1" stroke-linecap="butt" stroke-miterlimit="10" stroke-linejoin="miter" fill="none" stroke="#231f20" d="M0 0V-167.04"/>
<path transform="matrix(1,0,0,-1,1235.1705,881.32)" stroke-width="1" stroke-linecap="butt" stroke-miterlimit="10" stroke-linejoin="miter" fill="none" stroke="#231f20" d="M0 0V-167.04"/>
<path transform="matrix(1,0,0,-1,1304.6567,881.32)" stroke-width="1" stroke-linecap="butt" stroke-miterlimit="10" stroke-linejoin="miter" fill="none" stroke="#231f20" d="M0 0V-167.04"/>
<path transform="matrix(1,0,0,-1,1373.8234,881.32)" stroke-width="1" stroke-linecap="butt" stroke-miterlimit="10" stroke-linejoin="miter" fill="none" stroke="#231f20" d="M0 0V-167.04"/>
<path transform="matrix(1,0,0,-1,1442.9901,881.32)" stroke-width="1" stroke-linecap="butt" stroke-miterlimit="10" stroke-linejoin="miter" fill="none" stroke="#231f20" d="M0 0V-167.04"/>
<path transform="matrix(1,0,0,-1,1511.6012,881.32)" stroke-width="1" stroke-linecap="butt" stroke-miterlimit="10" stroke-linejoin="miter" fill="none" stroke="#231f20" d="M0 0V-167.04"/>
<path transform="matrix(1,0,0,-1,1581.1567,881.32)" stroke-width="1" stroke-linecap="butt" stroke-miterlimit="10" stroke-linejoin="miter" fill="none" stroke="#231f20" d="M0 0V-167.04"/>
<path transform="matrix(1,0,0,-1,1649.7909,881.32)" stroke-width="1" stroke-linecap="butt" stroke-miterlimit="10" stroke-linejoin="miter" fill="none" stroke="#231f20" d="M0 0V-167.04"/>
<path transform="matrix(1,0,0,-1,1688.77,881.87)" stroke-width="1" stroke-linecap="butt" stroke-miterlimit="10" stroke-linejoin="miter" fill="none" stroke="#231f20" d="M0 0V167.59"/>
<path transform="matrix(1,0,0,-1,1613.89,881.87)" stroke-width="1" stroke-linecap="butt" stroke-miterlimit="10" stroke-linejoin="miter" fill="none" stroke="#231f20" d="M0 0V167.59"/>
<path transform="matrix(1,0,0,-1,1544.77,881.87)" stroke-width="1" stroke-linecap="butt" stroke-miterlimit="10" stroke-linejoin="miter" fill="none" stroke="#231f20" d="M0 0V167.59"/>
<path transform="matrix(1,0,0,-1,1475.65,881.87)" stroke-width="1" stroke-linecap="butt" stroke-miterlimit="10" stroke-linejoin="miter" fill="none" stroke="#231f20" d="M0 0V167.59"/>
<path transform="matrix(1,0,0,-1,1406.53,881.87)" stroke-width="1" stroke-linecap="butt" stroke-miterlimit="10" stroke-linejoin="miter" fill="none" stroke="#231f20" d="M0 0V167.59"/>
<path transform="matrix(1,0,0,-1,1337.41,881.87)" stroke-width="1" stroke-linecap="butt" stroke-miterlimit="10" stroke-linejoin="miter" fill="none" stroke="#231f20" d="M0 0V167.59"/>
<path transform="matrix(1,0,0,-1,1268.29,881.87)" stroke-width="1" stroke-linecap="butt" stroke-miterlimit="10" stroke-linejoin="miter" fill="none" stroke="#231f20" d="M0 0V167.59"/>
<path transform="matrix(1,0,0,-1,1199.17,881.87)" stroke-width="1" stroke-linecap="butt" stroke-miterlimit="10" stroke-linejoin="miter" fill="none" stroke="#231f20" d="M0 0V167.59"/>
<path transform="matrix(1,0,0,-1,1124.29,881.87)" stroke-width="1" stroke-linecap="butt" stroke-miterlimit="10" stroke-linejoin="miter" fill="none" stroke="#231f20" d="M0 0V167.59"/>
<path transform="matrix(1,0,0,-1,1055.93,638.19998)" stroke-width="1" stroke-linecap="butt" stroke-miterlimit="10" stroke-linejoin="miter" fill="none" stroke="#231f20" d="M0 0V248.365"/>
<path transform="matrix(1,0,0,-1,1130.6001,638.19998)" stroke-width="1" stroke-linecap="butt" stroke-miterlimit="10" stroke-linejoin="miter" fill="none" stroke="#231f20" d="M0 0V236.049"/>
<path transform="matrix(1,0,0,-1,1199.92,638.19998)" stroke-width="1" stroke-linecap="butt" stroke-miterlimit="10" stroke-linejoin="miter" fill="none" stroke="#231f20" d="M0 0V224.835"/>
<path transform="matrix(1,0,0,-1,1269.04,638.19998)" stroke-width="1" stroke-linecap="butt" stroke-miterlimit="10" stroke-linejoin="miter" fill="none" stroke="#231f20" d="M0 0V214.02"/>
<path transform="matrix(1,0,0,-1,1338.16,638.19998)" stroke-width="1" stroke-linecap="butt" stroke-miterlimit="10" stroke-linejoin="miter" fill="none" stroke="#231f20" d="M0 0V219.299"/>
<path transform="matrix(1,0,0,-1,1407.28,638.19998)" stroke-width="1" stroke-linecap="butt" stroke-miterlimit="10" stroke-linejoin="miter" fill="none" stroke="#231f20" d="M0 0V224.733"/>
<path transform="matrix(1,0,0,-1,1476.38,638.19998)" stroke-width="1" stroke-linecap="butt" stroke-miterlimit="10" stroke-linejoin="miter" fill="none" stroke="#231f20" d="M0 0V230.355"/>
<path transform="matrix(1,0,0,-1,1545.5,638.19998)" stroke-width="1" stroke-linecap="butt" stroke-miterlimit="10" stroke-linejoin="miter" fill="none" stroke="#231f20" d="M0 0V235.461"/>
<path transform="matrix(1,0,0,-1,1614.81,638.19998)" stroke-width="1" stroke-linecap="butt" stroke-miterlimit="10" stroke-linejoin="miter" fill="none" stroke="#231f20" d="M0 0V149.76"/>
<path transform="matrix(1,0,0,-1,1683.8,638.19998)" stroke-width="1" stroke-linecap="butt" stroke-miterlimit="10" stroke-linejoin="miter" fill="none" stroke="#231f20" d="M0 0V149.76"/>
<path transform="matrix(1,0,0,-1,1752.79,638.19998)" stroke-width="1" stroke-linecap="butt" stroke-miterlimit="10" stroke-linejoin="miter" fill="none" stroke="#231f20" d="M0 0V149.76"/>
<path transform="matrix(1,0,0,-1,908.4901,1274.08)" stroke-width="1" stroke-linecap="butt" stroke-miterlimit="10" stroke-linejoin="miter" fill="none" stroke="#231f20" d="M0 0V149.76"/>
<path transform="matrix(1,0,0,-1,977.61,1274.08)" stroke-width="1" stroke-linecap="butt" stroke-miterlimit="10" stroke-linejoin="miter" fill="none" stroke="#231f20" d="M0 0V149.76"/>
<path transform="matrix(1,0,0,-1,1046.77,1274.08)" stroke-width="1" stroke-linecap="butt" stroke-miterlimit="10" stroke-linejoin="miter" fill="none" stroke="#231f20" d="M0 0V149.76"/>
<path transform="matrix(1,0,0,-1,1115.9,1274.08)" stroke-width="1" stroke-linecap="butt" stroke-miterlimit="10" stroke-linejoin="miter" fill="none" stroke="#231f20" d="M0 0V149.76"/>
<path transform="matrix(1,0,0,-1,1185.13,1274.08)" stroke-width="1" stroke-linecap="butt" stroke-miterlimit="10" stroke-linejoin="miter" fill="none" stroke="#231f20" d="M0 0V149.76"/>
<path transform="matrix(1,0,0,-1,1254.2101,1274.08)" stroke-width="1" stroke-linecap="butt" stroke-miterlimit="10" stroke-linejoin="miter" fill="none" stroke="#231f20" d="M0 0V149.76"/>
<path transform="matrix(1,0,0,-1,1323.37,1274.08)" stroke-width="1" stroke-linecap="butt" stroke-miterlimit="10" stroke-linejoin="miter" fill="none" stroke="#231f20" d="M0 0V149.76"/>
<path transform="matrix(1,0,0,-1,1392.52,1274.08)" stroke-width="1" stroke-linecap="butt" stroke-miterlimit="10" stroke-linejoin="miter" fill="none" stroke="#231f20" d="M0 0V149.76"/>
<path transform="matrix(1,0,0,-1,1461.67,1274.08)" stroke-width="1" stroke-linecap="butt" stroke-miterlimit="10" stroke-linejoin="miter" fill="none" stroke="#231f20" d="M0 0V149.76"/>
<path transform="matrix(1,0,0,-1,1530.8301,1274.08)" stroke-width="1" stroke-linecap="butt" stroke-miterlimit="10" stroke-linejoin="miter" fill="none" stroke="#231f20" d="M0 0V149.76"/>
<path transform="matrix(1,0,0,-1,1599.9801,1274.08)" stroke-width="1" stroke-linecap="butt" stroke-miterlimit="10" stroke-linejoin="miter" fill="none" stroke="#231f20" d="M0 0V149.76"/>
<path transform="matrix(1,0,0,-1,1668.9701,1274.08)" stroke-width="1" stroke-linecap="butt" stroke-miterlimit="10" stroke-linejoin="miter" fill="none" stroke="#231f20" d="M0 0V149.76"/>
<path transform="matrix(1,0,0,-1,1738.0901,1274.08)" stroke-width="1" stroke-linecap="butt" stroke-miterlimit="10" stroke-linejoin="miter" fill="none" stroke="#231f20" d="M0 0V149.76"/>
<path transform="matrix(1,0,0,-1,1723.9401,881.32)" stroke-width="1" stroke-linecap="butt" stroke-miterlimit="10" stroke-linejoin="miter" fill="none" stroke="#231f20" d="M0 0V-78.5H47.46L31.55-135.48-4.81-167.04H-726.85L-749.89-138.6-724.89 0-698.41 146.76-674.53 167.04H87.59L108.35 139.56 69.38 0H0Z"/>
<path transform="matrix(1,0,0,-1,1870.6001,535.62)" stroke-width="1" stroke-linecap="butt" stroke-miterlimit="10" stroke-linejoin="miter" fill="none" stroke="#231f20" d="M0 0-5.43-79.66-29.79-102.58H-905.76V160.67L-602.91 111.18-255.99 138.45V47.18H-12.86V0H0Z"/>
</g>
</g>
<g inkscape:groupmode="layer" inkscape:label="text_lot number">
</g>
<g inkscape:groupmode="layer" inkscape:label="road">
<g clip-path="url(#clip_3)">
<g opacity=".5">
<g clip-path="url(#clip_4)">
<path transform="matrix(1,0,0,-1,2264.2283,261.87464)" d="M0 0-3.86-67.89-1351.429 18.905C-1340.899 40.615-1329.769 63.065-1318.689 85.135Z" fill="#d8ba3d"/>
</g>
</g>
<g opacity=".5">
<g clip-path="url(#clip_5)">
<path transform="matrix(1,0,0,-1,1094.1244,-182.99951)" stroke-width="82" stroke-linecap="butt" stroke-miterlimit="10" stroke-linejoin="miter" fill="none" stroke="#fccd07" d="M0 0C0 0-187.585-317.797-248.482-486.923-309.379-656.049-409.352-1185.699-451.074-1241.415-492.797-1297.13-895.325-1875.495-895.325-1875.495"/>
<path transform="matrix(1,0,0,-1,-1.0033,1434.7041)" stroke-width="100" stroke-linecap="butt" stroke-miterlimit="10" stroke-linejoin="miter" fill="none" stroke="#fccd07" d="M0 0 2263.291-25.987"/>
<path transform="matrix(1,0,0,-1,274.8392,1583.328)" stroke-width="82" stroke-linecap="butt" stroke-miterlimit="10" stroke-linejoin="miter" fill="none" stroke="#fccd07" d="M0 0C0 0-181.004-15.05-98.912 165.637-29.584 318.229 203.024 290.816 203.024 290.816"/>
</g>
</g>
</g>
</g>
<g inkscape:groupmode="layer" inkscape:label="text_road">
<use data-text="A" xlink:href="#font_6_2" transform="matrix(35.9417,2.047,2.047,-35.9417,1253.9868,248.59082)" fill="#231f20"/>
<use data-text="c" xlink:href="#font_6_8" transform="matrix(35.9417,2.047,2.047,-35.9417,1274.6892,249.7699)" fill="#231f20"/>
<use data-text="c" xlink:href="#font_6_8" transform="matrix(35.9417,2.047,2.047,-35.9417,1290.5396,250.6726)" fill="#231f20"/>
<use data-text="e" xlink:href="#font_6_10" transform="matrix(35.9417,2.047,2.047,-35.9417,1306.3899,251.57532)" fill="#231f20"/>
<use data-text="s" xlink:href="#font_6_19" transform="matrix(35.9417,2.047,2.047,-35.9417,1325.0796,252.63977)" fill="#231f20"/>
<use data-text="s" xlink:href="#font_6_19" transform="matrix(35.9417,2.047,2.047,-35.9417,1341.1096,253.55274)" fill="#231f20"/>
<use data-text=" " xlink:href="#font_6_1" transform="matrix(35.9417,2.047,2.047,-35.9417,1357.1397,254.4657)" fill="#231f20"/>
<use data-text="r" xlink:href="#font_6_18" transform="matrix(35.9417,2.047,2.047,-35.9417,1364.328,254.87512)" fill="#231f20"/>
<use data-text="o" xlink:href="#font_6_17" transform="matrix(35.9417,2.047,2.047,-35.9417,1378.5608,255.68567)" fill="#231f20"/>
<use data-text="a" xlink:href="#font_6_6" transform="matrix(35.9417,2.047,2.047,-35.9417,1398.1849,256.80335)" fill="#231f20"/>
<use data-text="d" xlink:href="#font_6_9" transform="matrix(35.9417,2.047,2.047,-35.9417,1417.234,257.8883)" fill="#231f20"/>
<use data-text=" " xlink:href="#font_6_1" transform="matrix(35.9417,2.047,2.047,-35.9417,1437.9005,259.0653)" fill="#231f20"/>
<use data-text="t" xlink:href="#font_6_20" transform="matrix(35.9417,2.047,2.047,-35.9417,1445.0889,259.47474)" fill="#231f20"/>
<use data-text="o" xlink:href="#font_6_17" transform="matrix(35.9417,2.047,2.047,-35.9417,1458.3513,260.22999)" fill="#231f20"/>
<use data-text=" " xlink:href="#font_6_1" transform="matrix(35.9417,2.047,2.047,-35.9417,1478.3709,261.37013)" fill="#231f20"/>
<use data-text="H" xlink:href="#font_6_3" transform="matrix(35.9417,2.047,2.047,-35.9417,1485.5592,261.77955)" fill="#231f20"/>
<use data-text="u" xlink:href="#font_6_21" transform="matrix(35.9417,2.047,2.047,-35.9417,1509.8558,263.16334)" fill="#231f20"/>
<use data-text="b" xlink:href="#font_6_7" transform="matrix(35.9417,2.047,2.047,-35.9417,1530.4144,264.33424)" fill="#231f20"/>
<use data-text=" " xlink:href="#font_6_1" transform="matrix(35.9417,2.047,2.047,-35.9417,1551.0809,265.51124)" fill="#231f20"/>
<use data-text="8" xlink:href="#font_6_24" transform="matrix(35.9417,2.047,2.047,-35.9417,1558.2693,265.92066)" fill="#231f20"/>
<use data-text="J" xlink:href="#font_6_4" transform="matrix(8.3344,-35.0219,-35.0219,-8.3344,725.793,808.5049)"/>
<use data-text="a" xlink:href="#font_6_6" transform="matrix(8.2994,-35.0302,-35.0302,-8.2994,730.0605,790.5708)"/>
<use data-text="l" xlink:href="#font_6_15" transform="matrix(8.2782,-35.0352,-35.0352,-8.2782,734.458,772.0029)"/>
<use data-text="a" xlink:href="#font_6_6" transform="matrix(8.2616,-35.0392,-35.0392,-8.2616,736.856,761.8579)"/>
<use data-text="n" xlink:href="#font_6_16" transform="matrix(8.2476,-35.0424,-35.0424,-8.2476,741.2349,743.2871)"/>
<use data-text=" " xlink:href="#font_6_1" transform="matrix(8.2426,-35.0438,-35.0438,-8.2426,745.9814,723.1147)"/>
<use data-text="J" xlink:href="#font_6_4" transform="matrix(8.2415,-35.0438,-35.0438,-8.2415,747.625,716.1265)"/>
<use data-text="e" xlink:href="#font_6_10" transform="matrix(8.2458,-35.0428,-35.0428,-8.2458,751.8477,698.1685)"/>
<use data-text="l" xlink:href="#font_6_15" transform="matrix(8.2541,-35.041,-35.041,-8.2541,756.1353,679.9517)"/>
<use data-text="e" xlink:href="#font_6_10" transform="matrix(8.2667,-35.0381,-35.0381,-8.2667,758.5259,669.7983)"/>
<use data-text="b" xlink:href="#font_6_7" transform="matrix(8.2908,-35.0323,-35.0323,-8.2908,762.8276,651.562)"/>
<use data-text="u" xlink:href="#font_6_21" transform="matrix(8.325,-35.024,-35.024,-8.325,767.5957,631.4126)"/>
<use data-text="T" xlink:href="#font_7_5" transform="matrix(20.5758,-29.5402,-29.5402,-20.5758,247.9502,1645.1719)"/>
<use data-text="o" xlink:href="#font_7_13" transform="matrix(20.578,-29.5391,-29.5391,-20.578,257.6289,1631.2783)"/>
<use data-text=" " xlink:href="#font_7_1" transform="matrix(20.5794,-29.538,-29.538,-20.5794,268.7769,1615.2754)"/>
<use data-text="S" xlink:href="#font_7_4" transform="matrix(20.5808,-29.5369,-29.5369,-20.5808,272.8921,1609.3682)"/>
<use data-text="e" xlink:href="#font_7_8" transform="matrix(20.583,-29.5355,-29.5355,-20.583,283.8823,1593.5967)"/>
<use data-text="r" xlink:href="#font_7_15" transform="matrix(20.5844,-29.5344,-29.5344,-20.5844,294.0986,1578.9365)"/>
<use data-text="e" xlink:href="#font_7_8" transform="matrix(20.5862,-29.5333,-29.5333,-20.5862,301.0615,1568.9453)"/>
<use data-text="m" xlink:href="#font_7_11" transform="matrix(20.5888,-29.5315,-29.5315,-20.5888,311.2695,1554.3008)"/>
<use data-text="b" xlink:href="#font_7_7" transform="matrix(20.5916,-29.5294,-29.5294,-20.5916,328.3408,1529.8154)"/>
<use data-text="a" xlink:href="#font_7_6" transform="matrix(20.5938,-29.5279,-29.5279,-20.5938,339.4614,1513.8682)"/>
<use data-text="n" xlink:href="#font_7_12" transform="matrix(20.596,-29.5265,-29.5265,-20.596,349.834,1498.9961)"/>
<use data-text="L" xlink:href="#font_6_5" transform="matrix(35.9953,.585,.585,-35.9953,845.7388,1453.7276)"/>
<use data-text="e" xlink:href="#font_6_10" transform="matrix(35.9953,.585,.585,-35.9953,864.0244,1454.0247)"/>
<use data-text="k" xlink:href="#font_6_14" transform="matrix(35.9953,.585,.585,-35.9953,882.77798,1454.3295)"/>
<use data-text="a" xlink:href="#font_6_6" transform="matrix(35.9953,.585,.585,-35.9953,902.3594,1454.6477)"/>
<use data-text="s" xlink:href="#font_6_19" transform="matrix(35.9953,.5854,.5854,-35.9953,921.4204,1454.958)"/>
<use data-text=" " xlink:href="#font_6_1" transform="matrix(35.9953,.585,.585,-35.9953,937.4512,1455.2188)"/>
<use data-text="H" xlink:href="#font_6_3" transform="matrix(35.9953,.585,.585,-35.9953,944.6862,1455.3364)"/>
<use data-text="i" xlink:href="#font_6_13" transform="matrix(35.9953,.585,.585,-35.9953,969.01907,1455.7318)"/>
<use data-text="g" xlink:href="#font_6_11" transform="matrix(35.9953,.585,.585,-35.9953,979.0977,1455.8956)"/>
<use data-text="h" xlink:href="#font_6_12" transform="matrix(35.9953,.585,.585,-35.9953,998.4632,1456.2103)"/>
<use data-text="w" xlink:href="#font_6_22" transform="matrix(35.9953,.5854,.5854,-35.9953,1019.1479,1456.5459)"/>
<use data-text="a" xlink:href="#font_6_6" transform="matrix(35.9953,.585,.585,-35.9953,1046.9414,1456.999)"/>
<use data-text="y" xlink:href="#font_6_23" transform="matrix(35.9953,.5854,.5854,-35.9953,1066.0083,1457.3076)"/>
<use data-text="T" xlink:href="#font_7_5" transform="matrix(35.9885,.9047,.9047,-35.9885,1765.7881,1468.1636)"/>
<use data-text="o" xlink:href="#font_7_13" transform="matrix(35.9885,.9047,.9047,-35.9885,1782.7026,1468.5889)"/>
<use data-text=" " xlink:href="#font_7_1" transform="matrix(35.9885,.9047,.9047,-35.9885,1802.2084,1469.0791)"/>
<use data-text="S" xlink:href="#font_7_4" transform="matrix(35.9885,.9047,.9047,-35.9885,1809.4061,1469.2601)"/>
<use data-text="e" xlink:href="#font_7_8" transform="matrix(35.9885,.9047,.9047,-35.9885,1828.624,1469.7432)"/>
<use data-text="n" xlink:href="#font_7_12" transform="matrix(35.9885,.9047,.9047,-35.9885,1846.4744,1470.1919)"/>
<use data-text="a" xlink:href="#font_7_6" transform="matrix(35.9885,.9047,.9047,-35.9885,1866.16,1470.6868)"/>
<use data-text="w" xlink:href="#font_7_17" transform="matrix(35.9885,.9047,.9047,-35.9885,1884.2982,1471.1428)"/>
<use data-text="a" xlink:href="#font_7_6" transform="matrix(35.9885,.9047,.9047,-35.9885,1909.7781,1471.7833)"/>
<use data-text="n" xlink:href="#font_7_12" transform="matrix(35.9885,.9047,.9047,-35.9885,1927.9163,1472.2393)"/>
<use data-text="g" xlink:href="#font_7_9" transform="matrix(35.9885,.9047,.9047,-35.9885,1947.6019,1472.7341)"/>
<use data-text="T" xlink:href="#font_7_5" transform="matrix(35.9885,.9047,.9047,-35.9885,132.88587,1444.1481)"/>
<use data-text="o" xlink:href="#font_7_13" transform="matrix(35.9885,.9047,.9047,-35.9885,149.80046,1444.5733)"/>
<use data-text=" " xlink:href="#font_7_1" transform="matrix(35.9885,.9047,.9047,-35.9885,169.30623,1445.0636)"/>
<use data-text="K" xlink:href="#font_7_2" transform="matrix(35.9885,.9047,.9047,-35.9885,176.50392,1445.2446)"/>
<use data-text="u" xlink:href="#font_7_16" transform="matrix(35.9885,.9047,.9047,-35.9885,196.83742,1445.7557)"/>
<use data-text="a" xlink:href="#font_7_6" transform="matrix(35.9885,.9047,.9047,-35.9885,216.41516,1446.2479)"/>
<use data-text="l" xlink:href="#font_7_10" transform="matrix(35.9885,.9047,.9047,-35.9885,234.55336,1446.7039)"/>
<use data-text="a" xlink:href="#font_7_6" transform="matrix(35.9885,.9047,.9047,-35.9885,243.73043,1446.9346)"/>
<use data-text=" " xlink:href="#font_7_1" transform="matrix(35.9885,.9047,.9047,-35.9885,261.86863,1447.3905)"/>
<use data-text="L" xlink:href="#font_7_3" transform="matrix(35.9885,.9047,.9047,-35.9885,269.0663,1447.5714)"/>
<use data-text="u" xlink:href="#font_7_16" transform="matrix(35.9885,.9047,.9047,-35.9885,286.19685,1448.0021)"/>
<use data-text="m" xlink:href="#font_7_11" transform="matrix(35.9885,.9047,.9047,-35.9885,305.7746,1448.4943)"/>
<use data-text="p" xlink:href="#font_7_14" transform="matrix(35.9885,.9047,.9047,-35.9885,335.60908,1449.2443)"/>
<use data-text="u" xlink:href="#font_7_16" transform="matrix(35.9885,.9047,.9047,-35.9885,355.5827,1449.7463)"/>
<use data-text="r" xlink:href="#font_7_15" transform="matrix(35.9885,.9047,.9047,-35.9885,375.16047,1450.2385)"/>
</g>
</g>
</svg>
